<?xml version="1.0" standalone="no"?>
<!DOCTYPE svg PUBLIC "-//W3C//DTD SVG 20010904//EN"
 "http://www.w3.org/TR/2001/REC-SVG-20010904/DTD/svg10.dtd">
<svg version="1.0" xmlns="http://www.w3.org/2000/svg"
 width="715.000000pt" height="715.000000pt" viewBox="0 0 715.000000 715.000000"
 preserveAspectRatio="xMidYMid meet">
<metadata>
Created by potrace 1.14, written by Peter Selinger 2001-2017
</metadata>
<g transform="translate(0.000000,715.000000) scale(0.100000,-0.100000)"
fill="#000000" stroke="none">
<path d="M0 5680 l0 -1470 761 0 761 0 -3 28 c-1 15 1 34 4 42 12 33 14 70 3
70 -20 1 38 29 60 30 12 0 27 -7 34 -15 18 -21 57 -19 70 5 14 26 46 43 100
51 38 6 35 7 -15 3 -33 -2 -82 -7 -108 -10 -26 -3 -63 -3 -82 0 l-35 7 14 37
c26 72 36 109 36 128 0 11 4 24 8 30 16 17 54 123 48 133 -9 14 4 41 20 41 8
0 14 8 14 18 0 9 16 41 35 70 20 28 33 52 30 52 -11 0 57 91 71 97 35 13 151
-58 183 -112 25 -44 53 -44 61 -1 5 31 29 46 160 102 76 33 75 32 68 39 -9 10
-112 -17 -177 -46 -35 -16 -75 -29 -88 -29 -14 0 -52 16 -84 35 -33 19 -64 35
-69 35 -5 0 -13 8 -19 17 -7 14 -3 26 16 51 13 18 22 39 19 47 -3 9 7 20 28
30 18 9 53 39 77 68 24 28 51 58 60 67 9 8 49 47 90 85 84 80 152 135 167 135
6 0 12 4 14 8 12 28 297 193 413 239 17 6 46 18 66 26 196 79 547 136 775 124
285 -15 556 -80 774 -187 118 -57 201 -103 240 -132 25 -18 52 -37 61 -43 99
-60 256 -202 396 -355 13 -14 31 -32 40 -41 10 -9 27 -28 37 -43 15 -20 22
-24 29 -14 6 9 7 6 4 -10 -3 -14 1 -27 13 -35 17 -12 20 -17 20 -38 0 -6 6 -9
14 -6 9 4 12 0 9 -12 -2 -10 7 -35 21 -56 14 -21 26 -44 26 -51 0 -8 5 -14 11
-14 5 0 15 -13 20 -30 6 -16 15 -30 20 -30 5 0 9 -8 9 -17 0 -9 6 -24 13 -32
8 -9 20 -37 27 -63 7 -28 18 -48 26 -48 8 0 14 -4 14 -10 0 -5 -4 -10 -9 -10
-5 0 -3 -17 5 -37 7 -21 17 -37 22 -36 5 1 7 -9 5 -21 -6 -29 13 -66 32 -66
16 0 20 -12 8 -24 -12 -12 -12 -40 0 -48 7 -4 12 -37 14 -77 1 -38 7 -88 13
-109 l10 -40 58 -4 c31 -1 400 -2 820 0 l762 2 0 1470 0 1470 -3575 0 -3575 0
0 -1470z m1005 -500 c-3 -5 -11 -10 -16 -10 -6 0 -7 5 -4 10 3 6 11 10 16 10
6 0 7 -4 4 -10z m-135 -84 c0 -3 -4 -8 -10 -11 -5 -3 -10 -1 -10 4 0 6 5 11
10 11 6 0 10 -2 10 -4z m967 -2 c-3 -3 -12 -4 -19 -1 -8 3 -5 6 6 6 11 1 17
-2 13 -5z m3423 -94 c0 -5 -4 -10 -10 -10 -5 0 -10 5 -10 10 0 6 5 10 10 10 6
0 10 -4 10 -10z m177 -382 c-3 -7 -5 -2 -5 12 0 14 2 19 5 13 2 -7 2 -19 0
-25z"/>
<path d="M3760 5622 c0 -5 21 -24 48 -42 132 -94 186 -156 161 -186 -24 -30
21 -45 64 -23 28 15 37 28 37 57 0 19 -4 22 -20 17 -16 -5 -32 6 -73 50 -36
40 -75 69 -129 96 -83 42 -88 43 -88 31z"/>
<path d="M4159 5520 c-40 -21 -69 -50 -49 -50 16 0 110 53 110 63 0 11 -22 7
-61 -13z"/>
<path d="M3149 4640 c-64 -11 -145 -48 -133 -60 6 -6 22 -6 44 0 19 6 60 10
91 10 59 0 97 -20 120 -62 10 -18 8 -24 -12 -39 -19 -14 -22 -20 -11 -31 21
-21 119 5 155 42 40 41 71 39 132 -10 28 -22 53 -40 58 -40 15 0 6 54 -14 86
-36 58 -65 66 -131 34 -23 -11 -58 -20 -79 -20 -31 0 -40 6 -65 41 -40 58 -61
65 -155 49z"/>
<path d="M700 3870 l0 -160 125 0 125 0 0 -390 0 -390 -475 0 -475 0 0 -676
c0 -604 2 -677 16 -691 13 -14 17 -14 24 -3 7 12 13 12 34 1 19 -11 51 -13
130 -8 115 7 148 3 121 -17 -12 -8 4 -11 70 -11 71 -1 85 2 82 15 -2 13 10 15
73 12 41 -1 81 1 90 5 8 3 42 7 75 8 62 2 101 -11 85 -30 -6 -7 19 -10 76 -10
65 -1 83 2 80 12 -4 10 27 13 153 13 87 0 161 3 165 7 12 12 100 10 109 -1 4
-7 10 -6 17 4 9 13 11 13 20 0 9 -13 11 -13 20 0 9 13 11 13 20 0 9 -13 11
-13 20 0 9 13 11 13 20 0 6 -9 13 -11 18 -5 4 6 102 11 245 13 194 3 237 1
237 -10 0 -10 -24 -14 -107 -14 -252 -3 -296 -4 -289 -11 4 -4 113 -8 242 -8
186 0 233 2 230 12 -4 10 45 13 238 13 133 0 246 3 250 7 11 11 129 11 144 0
8 -6 12 -6 12 2 0 7 20 11 50 11 35 0 50 -4 50 -13 0 -10 -12 -13 -40 -12 -22
1 -47 -3 -55 -9 -12 -8 6 -11 70 -11 64 -1 85 2 85 12 0 9 -9 12 -24 9 -18 -3
-23 -1 -19 10 4 11 28 14 104 14 55 0 99 -4 99 -9 0 -6 50 -8 123 -6 67 2 122
4 122 5 0 8 54 5 70 -3 21 -11 97 -18 91 -8 -2 3 126 6 285 7 159 0 289 -2
289 -4 0 -3 -7 -10 -15 -16 -12 -8 16 -11 110 -12 92 0 125 3 125 12 0 8 -15
11 -44 9 -32 -1 -43 1 -40 10 7 18 313 32 324 15 6 -9 26 -11 74 -5 42 4 66 3
66 -4 0 -5 10 -12 23 -14 12 -2 -2 -5 -30 -6 -29 0 -53 -5 -53 -9 0 -4 90 -8
200 -7 142 0 200 3 200 11 0 12 48 23 68 16 7 -2 12 -10 12 -17 0 -10 12 -13
40 -12 29 1 39 5 36 14 -4 10 18 13 100 13 58 0 103 4 100 8 -3 5 1 9 9 9 8 0
15 -4 15 -9 0 -4 5 -8 11 -8 5 0 7 4 4 10 -3 5 0 10 9 10 8 0 16 -6 19 -12 3
-10 7 -10 20 1 11 9 17 10 17 2 0 -6 5 -11 11 -11 5 0 8 4 5 8 -6 10 140 9
150 0 4 -5 45 -8 92 -8 63 0 83 -3 79 -12 -3 -10 17 -13 80 -13 59 -1 82 2 79
11 -6 16 742 32 802 17 20 -5 21 -7 7 -17 -12 -8 13 -12 107 -13 67 -1 124 -7
127 -12 4 -5 26 -10 49 -9 35 0 42 3 38 17 -10 32 9 44 58 38 l46 -7 0 690 0
690 -375 0 -375 0 0 150 0 150 -99 0 c-67 0 -102 4 -108 13 -6 6 -56 154 -112
327 -106 327 -118 352 -192 412 -104 84 -301 48 -366 -67 -13 -22 -69 -179
-124 -350 -56 -170 -106 -316 -112 -322 -6 -9 -41 -13 -108 -13 l-98 0 -3
-147 -3 -148 -27 -3 -28 -3 0 150 0 151 -221 0 c-216 0 -220 0 -207 19 8 11
99 120 204 242 104 122 197 235 206 253 34 63 18 161 -37 218 -60 64 -53 63
-470 63 l-380 0 -3 -157 -3 -158 226 -2 225 -3 -76 -90 c-42 -49 -88 -103
-102 -120 -121 -136 -245 -291 -257 -320 -30 -69 -8 -157 52 -212 l34 -31 -75
-4 -76 -3 0 153 0 152 -185 0 c-176 0 -185 1 -195 21 -24 44 -11 48 152 51
l153 3 3 163 2 162 -155 0 c-170 0 -184 5 -151 55 l16 25 180 0 180 0 0 161 0
161 -222 -4 c-259 -5 -288 -12 -371 -88 -106 -97 -120 -158 -115 -514 3 -257
3 -262 29 -316 34 -72 70 -114 128 -148 l46 -27 -125 -5 -125 -5 -5 150 -5
150 -80 3 c-73 3 -94 10 -95 34 0 4 21 31 46 60 158 177 150 424 -17 589 -120
119 -320 149 -471 73 -59 -30 -129 -92 -168 -149 -55 -81 -63 -122 -67 -350
-2 -115 -6 -220 -9 -232 -4 -20 -11 -23 -49 -23 l-45 0 0 -150 0 -150 -30 0
-30 0 0 150 0 150 -178 0 c-188 0 -202 3 -202 47 l0 23 155 0 155 0 0 165 0
165 -155 0 -155 0 0 23 c0 51 22 57 208 57 l172 0 0 161 0 161 -222 -4 c-216
-3 -225 -4 -279 -29 -68 -32 -131 -96 -167 -169 l-27 -55 -3 -296 c-3 -283 -2
-298 19 -355 16 -43 37 -74 78 -114 31 -30 65 -60 76 -67 16 -10 -32 -12 -230
-10 l-250 2 -3 365 c-1 201 0 375 3 388 5 21 9 22 130 22 l125 0 0 160 0 160
-415 0 -415 0 0 -160z m2229 -189 c25 -23 31 -37 31 -70 0 -34 -7 -49 -44 -90
-81 -92 -100 -133 -104 -236 -3 -74 0 -100 17 -146 25 -66 87 -141 150 -181
l45 -28 -230 1 c-219 0 -228 1 -204 17 58 40 111 98 137 151 28 55 28 58 33
301 3 135 9 253 14 263 24 51 109 61 155 18z m2885 -338 c40 -120 82 -236 94
-258 24 -47 84 -110 124 -131 15 -8 28 -17 28 -19 0 -3 -145 -5 -322 -4 -254
0 -319 3 -304 12 42 26 109 93 131 131 12 23 56 143 96 268 41 124 76 225 77
223 2 -2 36 -102 76 -222z m-4613 -1750 c-19 -4 -21 -7 -10 -14 9 -6 -1 -8
-31 -7 -30 0 -37 2 -20 6 l25 5 -25 8 c-18 5 -9 7 30 7 30 -1 44 -3 31 -5z
m202 0 c-7 -2 -19 -2 -25 0 -7 3 -2 5 12 5 14 0 19 -2 13 -5z m54 1 c-3 -3
-12 -4 -19 -1 -8 3 -5 6 6 6 11 1 17 -2 13 -5z m120 0 c-3 -3 -12 -4 -19 -1
-8 3 -5 6 6 6 11 1 17 -2 13 -5z m326 -1 c-13 -2 -33 -2 -45 0 -13 2 -3 4 22
4 25 0 35 -2 23 -4z m1054 1 c-3 -3 -12 -4 -19 -1 -8 3 -5 6 6 6 11 1 17 -2
13 -5z m316 -1 c-13 -2 -35 -2 -50 0 -16 2 -5 4 22 4 28 0 40 -2 28 -4z m145
0 c-16 -2 -40 -2 -55 0 -16 2 -3 4 27 4 30 0 43 -2 28 -4z m75 0 c-7 -2 -19
-2 -25 0 -7 3 -2 5 12 5 14 0 19 -2 13 -5z m90 0 c-7 -2 -21 -2 -30 0 -10 3
-4 5 12 5 17 0 24 -2 18 -5z m720 0 c-13 -2 -33 -2 -45 0 -13 2 -3 4 22 4 25
0 35 -2 23 -4z m887 3 c0 -2 -16 -6 -35 -8 -19 -2 -35 0 -35 4 0 4 16 8 35 8
19 0 35 -2 35 -4z m233 -3 c-13 -2 -33 -2 -45 0 -13 2 -3 4 22 4 25 0 35 -2
23 -4z m644 1 c-3 -3 -12 -4 -19 -1 -8 3 -5 6 6 6 11 1 17 -2 13 -5z m80 0
c-3 -3 -12 -4 -19 -1 -8 3 -5 6 6 6 11 1 17 -2 13 -5z m316 -11 c-13 -2 -33
-2 -45 0 -13 2 -3 4 22 4 25 0 35 -2 23 -4z m477 -1 c0 -5 -7 -9 -15 -9 -8 0
-12 4 -9 9 3 4 9 8 15 8 5 0 9 -4 9 -8z m-6487 -9 c-7 -2 -21 -2 -30 0 -10 3
-4 5 12 5 17 0 24 -2 18 -5z m1900 0 c-24 -2 -62 -2 -85 0 -24 2 -5 4 42 4 47
0 66 -2 43 -4z m1230 0 c-13 -2 -35 -2 -50 0 -16 2 -5 4 22 4 28 0 40 -2 28
-4z m220 0 c-24 -2 -62 -2 -85 0 -24 2 -5 4 42 4 47 0 66 -2 43 -4z m2285 0
c-32 -2 -86 -2 -120 0 -35 2 -9 3 57 3 66 0 94 -1 63 -3z m130 0 c-10 -2 -28
-2 -40 0 -13 2 -5 4 17 4 22 1 32 -1 23 -4z m-4158 -21 c0 -5 -7 -9 -15 -9 -8
0 -12 4 -9 9 3 4 9 8 15 8 5 0 9 -4 9 -8z m2000 0 c0 -5 -7 -9 -15 -9 -8 0
-12 4 -9 9 3 4 9 8 15 8 5 0 9 -4 9 -8z m80 0 c0 -5 -7 -9 -15 -9 -8 0 -12 4
-9 9 3 4 9 8 15 8 5 0 9 -4 9 -8z"/>
<path d="M2960 1534 c0 -9 14 -12 40 -11 50 2 47 21 -3 22 -24 1 -37 -3 -37
-11z"/>
<path d="M4320 1538 c0 -10 0 -10 88 -12 39 -1 72 1 72 5 0 4 -36 9 -80 11
-44 2 -80 0 -80 -4z"/>
<path d="M4 1533 c10 -10 156 -11 156 -1 0 4 -37 8 -82 8 -45 0 -78 -3 -74 -7z"/>
<path d="M1117 1533 c-3 -5 33 -8 79 -8 46 -1 84 3 84 7 0 10 -157 11 -163 1z"/>
<path d="M1444 1531 c7 -11 76 -10 76 1 0 4 -18 8 -41 8 -22 0 -38 -4 -35 -9z"/>
<path d="M5277 1533 c-3 -5 33 -8 79 -8 46 -1 84 3 84 7 0 10 -157 11 -163 1z"/>
<path d="M7060 1515 c0 -8 4 -15 10 -15 5 0 7 7 4 15 -4 8 -8 15 -10 15 -2 0
-4 -7 -4 -15z"/>
<path d="M0 820 c0 -5 5 -10 10 -10 6 0 10 5 10 10 0 6 -4 10 -10 10 -5 0 -10
-4 -10 -10z"/>
<path d="M45 820 c-3 -5 3 -10 15 -10 12 0 18 5 15 10 -3 6 -10 10 -15 10 -5
0 -12 -4 -15 -10z"/>
<path d="M316 823 c-3 -4 -56 -6 -116 -6 -60 1 -112 -2 -115 -8 -4 -5 -24 -9
-46 -9 l-39 0 0 -44 c0 -26 5 -46 13 -49 13 -4 370 -11 587 -10 69 0 283 1
475 1 193 1 393 1 445 1 107 -2 570 -1 585 0 32 2 394 2 695 -1 85 -1 214 -2
285 -1 72 0 195 1 275 2 80 0 235 -1 344 -4 113 -2 207 0 217 6 12 6 19 5 21
-3 2 -6 10 -8 17 -4 18 12 191 14 198 3 3 -5 36 -6 77 -3 70 7 151 7 859 3
248 -2 367 1 367 8 0 5 5 3 10 -5 5 -8 10 -10 10 -5 0 6 79 9 222 8 284 -3
517 -5 788 -5 118 0 289 -2 378 -5 102 -2 168 0 176 6 7 6 33 8 59 6 l47 -5 0
50 0 49 -57 4 -58 3 58 2 c33 1 57 7 57 13 0 7 -21 9 -62 6 -35 -3 -526 -5
-1093 -5 -566 0 -1070 1 -1120 1 -49 0 -193 0 -320 0 -694 0 -1105 -5 -1111
-14 -3 -5 -24 -9 -47 -8 -23 0 -36 3 -29 6 6 2 12 9 12 15 0 6 -7 7 -17 3 -10
-4 -30 -7 -45 -6 -15 1 -29 -3 -33 -9 -4 -6 -54 -9 -128 -8 -115 2 -117 2 -29
5 54 2 92 8 92 14 0 7 -34 9 -97 5 -54 -2 -129 -4 -168 -4 -38 1 -110 1 -160
1 -49 0 -426 -2 -838 -3 -413 -1 -750 -6 -753 -11 -3 -5 -24 -9 -47 -8 -23 0
-36 3 -29 6 6 2 12 9 12 15 0 6 -7 7 -17 3 -10 -4 -49 -6 -88 -5 -72 3 -197 3
-319 0 -44 -1 -74 -7 -83 -15 -9 -9 -24 -12 -43 -8 -27 5 -30 3 -30 -21 0 -17
5 -26 16 -26 9 0 14 -5 12 -12 -3 -9 -31 -11 -96 -9 -61 2 -92 -1 -92 -8 0 -6
-18 -11 -40 -11 -29 0 -40 4 -40 15 0 11 11 15 40 15 38 0 40 1 40 31 0 29 -2
31 -28 26 -15 -3 -34 -2 -42 4 -10 6 14 9 68 9 53 0 81 4 77 10 -7 11 -148 14
-159 3z m607 -20 c-24 -2 -62 -2 -85 0 -24 2 -5 4 42 4 47 0 66 -2 43 -4z
m1920 0 c-24 -2 -62 -2 -85 0 -24 2 -5 4 42 4 47 0 66 -2 43 -4z m1440 0 c-24
-2 -62 -2 -85 0 -24 2 -5 4 42 4 47 0 66 -2 43 -4z m640 0 c-24 -2 -62 -2 -85
0 -24 2 -5 4 42 4 47 0 66 -2 43 -4z m-4203 -63 c0 -5 -18 -10 -40 -10 -22 0
-40 5 -40 10 0 6 18 10 40 10 22 0 40 -4 40 -10z m2400 -5 c0 -12 -13 -15 -59
-15 -32 0 -86 -3 -120 -6 -52 -6 -61 -4 -61 9 0 18 30 22 163 25 62 2 77 -1
77 -13z m560 5 c0 -7 -43 -10 -120 -9 -66 1 -120 6 -120 10 0 5 54 9 120 9 76
0 120 -4 120 -10z m720 -1 c0 -5 -54 -9 -120 -9 -74 0 -120 4 -120 10 0 6 45
10 120 9 66 -1 120 -5 120 -10z m556 4 c-12 -12 -156 -15 -156 -4 0 7 31 11
82 11 45 0 78 -3 74 -7z m487 -5 c3 -10 -15 -12 -79 -10 -46 2 -84 8 -84 13 0
14 157 11 163 -3z m1597 3 c0 -10 -135 -22 -195 -17 -22 2 -60 5 -85 6 l-45 3
45 7 c68 11 280 11 280 1z m-1920 -16 c0 -11 -11 -15 -40 -15 -29 0 -40 4 -40
15 0 11 11 15 40 15 29 0 40 -4 40 -15z"/>
<path d="M1165 820 c-3 -5 3 -10 15 -10 12 0 18 5 15 10 -3 6 -10 10 -15 10
-5 0 -12 -4 -15 -10z"/>
<path d="M3245 820 c-3 -5 3 -10 15 -10 12 0 18 5 15 10 -3 6 -10 10 -15 10
-5 0 -12 -4 -15 -10z"/>
<path d="M3405 820 c-3 -5 3 -10 15 -10 12 0 18 5 15 10 -3 6 -10 10 -15 10
-5 0 -12 -4 -15 -10z"/>
</g>
</svg>
